<svg width="130" height="121" viewBox="0 0 130 121" fill="none" xmlns="http://www.w3.org/2000/svg">
<path d="M59.5833 110.5V70.6L34.6667 94.75L27.0833 87.4L57.4167 58L27.0833 28.6L34.6667 21.25L59.5833 45.4V5.5H65L95.875 35.425L72.5833 58L95.875 80.575L65 110.5H59.5833ZM70.4167 45.4L80.7083 35.425L70.4167 25.7125V45.4ZM70.4167 90.2875L80.7083 80.575L70.4167 70.6V90.2875ZM27.0833 65.875C24.8264 65.875 22.908 65.1094 21.3281 63.5781C19.7483 62.0469 18.9583 60.1875 18.9583 58C18.9583 55.8125 19.7483 53.9531 21.3281 52.4219C22.908 50.8906 24.8264 50.125 27.0833 50.125C29.3403 50.125 31.2587 50.8906 32.8385 52.4219C34.4184 53.9531 35.2083 55.8125 35.2083 58C35.2083 60.1875 34.4184 62.0469 32.8385 63.5781C31.2587 65.1094 29.3403 65.875 27.0833 65.875ZM102.917 65.875C100.66 65.875 98.7413 65.1094 97.1615 63.5781C95.5816 62.0469 94.7917 60.1875 94.7917 58C94.7917 55.8125 95.5816 53.9531 97.1615 52.4219C98.7413 50.8906 100.66 50.125 102.917 50.125C105.174 50.125 107.092 50.8906 108.672 52.4219C110.252 53.9531 111.042 55.8125 111.042 58C111.042 60.1875 110.252 62.0469 108.672 63.5781C107.092 65.1094 105.174 65.875 102.917 65.875Z" fill="black"/>
</svg>
