<svg xmlns="http://www.w3.org/2000/svg" width="30" height="30" viewBox="0 0 24 24"><path fill="#FFFFFF" d="M12 22q-1.875 0-3.513-.713t-2.85-1.924q-1.212-1.213-1.924-2.85T3 13q0-1.875.713-3.513t1.924-2.85q1.213-1.212 2.85-1.924T12 4q1.875 0 3.513.713t2.85 1.925q1.212 1.212 1.925 2.85T21 13q0 1.875-.713 3.513t-1.924 2.85q-1.213 1.212-2.85 1.925T12 22Zm0-9Zm2.8 4.2l1.4-1.4l-3.2-3.2V8h-2v5.4l3.8 3.8ZM5.6 2.35L7 3.75L2.75 8l-1.4-1.4L5.6 2.35Zm12.8 0l4.25 4.25l-1.4 1.4L17 3.75l1.4-1.4ZM12 20q2.925 0 4.963-2.038T19 13q0-2.925-2.038-4.963T12 6Q9.075 6 7.037 8.038T5 13q0 2.925 2.038 4.963T12 20Z"/></svg>