<svg width="130" height="126" viewBox="0 0 130 126" fill="none" xmlns="http://www.w3.org/2000/svg">
<path d="M65 73.5C60.4861 73.5 56.6493 71.9687 53.4896 68.9062C50.3299 65.8437 48.75 62.125 48.75 57.75V26.25C48.75 21.875 50.3299 18.1562 53.4896 15.0937C56.6493 12.0312 60.4861 10.5 65 10.5C69.5139 10.5 73.3507 12.0312 76.5104 15.0937C79.6701 18.1562 81.25 21.875 81.25 26.25V57.75C81.25 62.125 79.6701 65.8437 76.5104 68.9062C73.3507 71.9687 69.5139 73.5 65 73.5ZM59.5833 110.25V94.1062C50.1944 92.8812 42.4306 88.8125 36.2917 81.9C30.1528 74.9875 27.0833 66.9375 27.0833 57.75H37.9167C37.9167 65.0125 40.5573 71.2031 45.8385 76.3219C51.1198 81.4406 57.5069 84 65 84C72.4931 84 78.8802 81.4406 84.1615 76.3219C89.4427 71.2031 92.0833 65.0125 92.0833 57.75H102.917C102.917 66.9375 99.8472 74.9875 93.7083 81.9C87.5694 88.8125 79.8056 92.8812 70.4167 94.1062V110.25H59.5833ZM65 63C66.5347 63 67.8212 62.4969 68.8594 61.4906C69.8976 60.4844 70.4167 59.2375 70.4167 57.75V26.25C70.4167 24.7625 69.8976 23.5156 68.8594 22.5094C67.8212 21.5031 66.5347 21 65 21C63.4653 21 62.1788 21.5031 61.1406 22.5094C60.1024 23.5156 59.5833 24.7625 59.5833 26.25V57.75C59.5833 59.2375 60.1024 60.4844 61.1406 61.4906C62.1788 62.4969 63.4653 63 65 63Z" fill="black"/>
</svg>
