<svg width="130" height="126" viewBox="0 0 130 126" fill="none" xmlns="http://www.w3.org/2000/svg">
<path d="M96.1458 78.4875L88.2917 70.875C89.5556 68.8625 90.5035 66.7625 91.1354 64.575C91.7674 62.3875 92.0833 60.1125 92.0833 57.75H102.917C102.917 61.6 102.33 65.2531 101.156 68.7094C99.9826 72.1656 98.3125 75.425 96.1458 78.4875ZM80.1667 62.7375L70.4167 53.2875V26.25C70.4167 24.7625 69.8976 23.5156 68.8594 22.5094C67.8212 21.5031 66.5347 21 65 21C63.4653 21 62.1788 21.5031 61.1406 22.5094C60.1024 23.5156 59.5833 24.7625 59.5833 26.25V42.7875L48.75 32.2875V26.25C48.75 21.875 50.3299 18.1562 53.4896 15.0937C56.6493 12.0312 60.4861 10.5 65 10.5C69.5139 10.5 73.3507 12.0312 76.5104 15.0937C79.6701 18.1562 81.25 21.875 81.25 26.25V57.75C81.25 58.7125 81.1372 59.5875 80.9115 60.375C80.6858 61.1625 80.4375 61.95 80.1667 62.7375ZM59.5833 110.25V94.1063C50.1944 92.8813 42.4306 88.8125 36.2917 81.9C30.1528 74.9875 27.0833 66.9375 27.0833 57.75H37.9167C37.9167 65.0125 40.5122 71.2031 45.7031 76.3219C50.8941 81.4406 57.3264 84 65 84C68.0694 84 70.9809 83.5406 73.7344 82.6219C76.4878 81.7031 78.9931 80.4125 81.25 78.75L88.9688 86.2313C86.3507 88.2438 83.4844 89.95 80.3698 91.35C77.2552 92.75 73.9375 93.6688 70.4167 94.1063V110.25H59.5833ZM107.25 118.65L7.58333 22.05L15.1667 14.7L114.833 111.3L107.25 118.65Z" fill="black"/>
</svg>
