<?xml version="1.0" encoding="UTF-8"?>
<svg version="1.1" xmlns="http://www.w3.org/2000/svg" width="512" height="512">
<path d="M0 0 C0.68964844 0.639375 1.37929687 1.27875 2.08984375 1.9375 C4.01641981 3.29065778 4.01641981 3.29065778 6.4765625 2.41015625 C9.07225544 0.95962196 11.13137894 -0.61409223 13.375 -2.5625 C38.53336881 -23.11283671 70.93891628 -33.69860747 103.30078125 -30.79345703 C123.71207747 -28.39612673 143.59918618 -19.56306965 159 -6 C159.81855469 -5.32453125 160.63710938 -4.6490625 161.48046875 -3.953125 C180.584798 12.27815008 194.38399512 38.03793476 197 63 C200.12643453 113.43891588 183.35167271 158.15739002 150 196 C146.08879879 200.41981149 142.08820378 204.74367269 138 209 C137.5349707 209.48694336 137.06994141 209.97388672 136.59082031 210.47558594 C131.04306098 216.25628128 125.30700025 221.60197662 119.03125 226.58203125 C116.85104371 228.3211391 114.71541212 230.07939887 112.59375 231.88671875 C94.01263558 247.58612534 73.15934174 260.11456609 52 272 C51.28021973 272.40686035 50.56043945 272.8137207 49.81884766 273.23291016 C39.20924266 279.19601149 28.15672974 284.15791732 17 289 C16.10925781 289.4021875 15.21851563 289.804375 14.30078125 290.21875 C3.48596848 293.8910124 -5.8563995 289.99335615 -15.48828125 285.27734375 C-16.99267927 284.51920421 -18.49659988 283.76011646 -20 283 C-21.36742123 282.33244255 -22.73587606 281.66699722 -24.10546875 281.00390625 C-27.42675912 279.38385416 -30.72163883 277.71732375 -34.00683594 276.02539062 C-35.33867754 275.34021979 -36.67268481 274.65924279 -38.00878906 273.98242188 C-62.16528803 261.73569272 -84.47072451 246.7341586 -105.26611328 229.42529297 C-106.74871417 228.20656247 -108.26033672 227.02328336 -109.77734375 225.84765625 C-123.27227956 215.34697431 -135.65245525 202.5966738 -146 189 C-146.76828125 188.06027344 -147.5365625 187.12054688 -148.328125 186.15234375 C-177.09874023 150.37002198 -191.48569349 105.80273877 -186.68652344 60.00878906 C-185.92703949 54.84779454 -184.69063862 49.93102931 -183 45 C-182.77505859 44.33919434 -182.55011719 43.67838867 -182.31835938 42.99755859 C-172.07401569 13.85197748 -152.26262487 -8.15245137 -124.78515625 -21.80078125 C-82.09477336 -42.02615461 -35.33953336 -27.8575283 0 0 Z M-26.3125 70.25 C-35.13467075 80.83660491 -38.15932865 92.36688206 -37 106 C-34.68233275 117.44955377 -28.52253462 127.19101087 -19 134 C-18.34 134.33 -17.68 134.66 -17 135 C-16.67 151.17 -16.34 167.34 -16 184 C-2.14 184 11.72 184 26 184 C25.979375 180.53242188 25.95875 177.06484375 25.9375 173.4921875 C25.94472122 170.12616506 25.96559883 166.76048433 25.98779297 163.39453125 C25.99589371 161.05892513 25.98984012 158.72322462 25.96923828 156.38769531 C25.9420541 153.02544074 25.96611298 149.66681373 26 146.3046875 C25.9805835 145.26384003 25.96116699 144.22299255 25.94116211 143.15060425 C26.08249107 136.01327181 26.08249107 136.01327181 28.77130127 133.04382324 C30.78516275 131.53709103 32.83315039 130.27093338 35 129 C42.94895794 120.93666856 47.07206443 110.73719943 47.3125 99.5 C47.18129907 86.85223 42.59033657 77.287802 34.19140625 68 C25.16963396 59.29708453 13.72864888 56.6635233 1.6015625 56.7890625 C-9.2961874 57.42732551 -18.85199657 62.32758922 -26.3125 70.25 Z " fill="#000000" transform="translate(251,221)"/>
<path d="M0 0 C21.13779772 16.99977107 35.13850714 41.85164388 39.0333252 68.71258545 C40.39101502 81.99422402 39.80684114 95.51896627 39.66918945 108.85009766 C39.62769881 113.30233086 39.60988157 117.75465897 39.58984375 122.20703125 C39.54740543 130.88697429 39.47946518 139.56646277 39.39453125 148.24609375 C38.37617188 148.24085693 37.3578125 148.23562012 36.30859375 148.23022461 C32.49919528 148.21200639 28.68980059 148.20060074 24.88037109 148.19116211 C23.23746084 148.18616012 21.59455498 148.17935642 19.95166016 148.1706543 C17.57843944 148.15840635 15.20527802 148.15282396 12.83203125 148.1484375 C12.10773926 148.14327621 11.38344727 148.13811493 10.63720703 148.13279724 C5.80709735 148.13227616 1.17762262 148.5658214 -3.60546875 149.24609375 C-3.6135556 148.46729858 -3.62164246 147.68850342 -3.62997437 146.8861084 C-3.70856942 139.47402147 -3.79604315 132.06211337 -3.89299583 124.65024567 C-3.94251618 120.841573 -3.98884182 117.03292234 -4.02734375 113.22412109 C-4.06476617 109.53460452 -4.11126217 105.84529508 -4.16353226 102.15596008 C-4.18177927 100.76251433 -4.19699101 99.36902472 -4.20881271 97.97550964 C-4.4042704 75.68985928 -7.41635245 55.99803685 -23.16796875 39.05859375 C-35.94514657 26.86307805 -52.75135372 20.78118769 -70.3125 21.04296875 C-87.14713736 22.08140427 -102.00241897 29.08627574 -113.60546875 41.24609375 C-114.16363281 41.78492187 -114.72179687 42.32375 -115.296875 42.87890625 C-129.94653752 58.10231534 -130.68094405 79.75605032 -130.921875 99.5390625 C-130.94250003 100.98066222 -130.96349771 102.42225666 -130.98484802 103.86384583 C-131.03949687 107.62016459 -131.08915314 111.3765326 -131.13769531 115.13293457 C-131.18833366 118.98124465 -131.24379652 122.82948505 -131.29882812 126.67773438 C-131.40570788 134.20046148 -131.50730234 141.72324735 -131.60546875 149.24609375 C-132.75144531 149.08310791 -133.89742187 148.92012207 -135.078125 148.75219727 C-139.41847478 148.21173887 -143.6740247 148.11730452 -148.04296875 148.1484375 C-148.80851074 148.14985245 -149.57405273 148.1512674 -150.36279297 148.15272522 C-152.77706017 148.15826522 -155.19123019 148.17080596 -157.60546875 148.18359375 C-159.25520698 148.18861652 -160.90494669 148.19317806 -162.5546875 148.19726562 C-166.5716513 148.20821489 -170.58854362 148.22543709 -174.60546875 148.24609375 C-174.69897908 138.53474936 -174.76963817 128.8235647 -174.81271744 119.11186504 C-174.8334143 114.60021014 -174.86139544 110.08886772 -174.90722656 105.57739258 C-174.95133479 101.20715672 -174.97473958 96.83721751 -174.98497772 92.46677589 C-174.99225459 90.8161535 -175.00645593 89.16554359 -175.02838898 87.51505089 C-175.38183937 59.76231257 -166.79455783 34.41090293 -148.60546875 13.24609375 C-148.08855469 12.58480469 -147.57164062 11.92351563 -147.0390625 11.2421875 C-111.48012711 -32.87228122 -42.32780822 -32.83521681 0 0 Z " fill="#000000" transform="translate(323.60546875,22.75390625)"/>
</svg>
