<?xml version="1.0" encoding="UTF-8"?>
<svg version="1.1" xmlns="http://www.w3.org/2000/svg" width="1000" height="1000">
<path d="M0 0 C44.00453537 11.3590029 83.05862636 31.158774 119 59 C119.56025879 59.43022461 120.12051758 59.86044922 120.69775391 60.30371094 C127.46664828 65.50544105 134.09926227 70.78057315 140.37426758 76.578125 C142.11528375 78.18397162 143.86377598 79.78175308 145.61987305 81.37109375 C152.91398703 87.98734418 159.98384963 94.79756637 166.9465332 101.76123047 C168.69138808 103.50388317 170.44413743 105.23833163 172.19726562 106.97265625 C178.916117 113.65705986 185.18256627 120.49960226 191 128 C191.95024048 129.21574707 191.95024048 129.21574707 192.91967773 130.45605469 C201.54159808 141.59766965 209.62901577 152.99427355 217 165 C217.41024414 165.66499512 217.82048828 166.32999023 218.24316406 167.01513672 C270.4156774 252.13110166 288.52127308 356.02071853 265.625 460.33984375 C250.92548813 521.33039088 223.71208431 579.53838157 181 626 C179.82865335 627.3292238 178.66175407 628.66238407 177.5 630 C174.14443594 633.85039378 170.73350491 637.64872813 167.30859375 641.4375 C165.81356836 643.09695289 164.32606297 644.76322452 162.84765625 646.4375 C154.49245284 655.86543296 145.69780959 664.94285836 136 673 C135.24468994 673.64195312 135.24468994 673.64195312 134.47412109 674.296875 C117.00601176 689.12011235 98.15072771 702.10379369 78 713 C77.04899414 713.5165918 76.09798828 714.03318359 75.11816406 714.56542969 C37.44043265 734.90730006 -2.18176216 749.0182589 -44.3125 756.75 C-45.39660156 756.94907959 -46.48070312 757.14815918 -47.59765625 757.35327148 C-67.21427927 760.76887518 -86.54696962 761.40375519 -106.4375 761.375 C-107.10891399 761.3749081 -107.78032799 761.37481621 -108.47208786 761.37472153 C-130.54824783 761.37082005 -152.17495461 760.47158283 -174 757 C-175.21091309 756.81808105 -176.42182617 756.63616211 -177.66943359 756.44873047 C-204.64752709 752.34536135 -231.5456576 745.89639102 -257 736 C-258.13002441 735.56171875 -259.26004883 735.1234375 -260.42431641 734.671875 C-299.28225051 719.43634193 -335.82246363 698.75789086 -366.5546875 670.265625 C-368.67250779 668.30342729 -370.81822682 666.39028122 -373 664.5 C-377.1793609 660.86875201 -381.2602813 657.13258252 -385.34765625 653.3984375 C-387.51699166 651.43677042 -389.71205146 649.52195198 -391.9375 647.625 C-451.61638927 595.68226304 -487.08362831 512.77630229 -505.58642578 398.234375 C-508.37794456 349.75261301 -502.27466303 301.38887046 -488 255 C-487.54802246 253.52055908 -487.54802246 253.52055908 -487.08691406 252.01123047 C-471.89699764 202.89716738 -446.46957618 155.17325556 -411.20556641 117.44189453 C-409.01470411 115.01627967 -406.98940852 112.51151054 -404.9609375 109.94921875 C-400.27134103 104.19024235 -395.21171679 98.93931659 -389.93383789 93.72802734 C-388.42984161 92.24243532 -386.93415095 90.74884795 -385.43945312 89.25390625 C-380.12940408 83.96279079 -374.73659049 78.82745521 -369 74 C-368.38697021 73.48018555 -367.77394043 72.96037109 -367.14233398 72.42480469 C-358.16945 64.87736508 -348.90046464 58.00464707 -339.171875 51.47167969 C-335.16547939 48.75691432 -331.21075112 45.96823261 -327.25 43.1875 C-326.41275391 42.60137939 -325.57550781 42.01525879 -324.71289062 41.41137695 C-320.41489188 38.40171072 -316.12440059 35.38194898 -311.84375 32.34765625 C-299.18432582 23.39104111 -286.50443525 14.65563311 -272.6875 7.5625 C-272.0780957 7.2442627 -271.46869141 6.92602539 -270.84082031 6.59814453 C-257.02335053 -0.25157287 -245.86692991 1 -230 1 C-230 26.41 -230 51.82 -230 78 C-247.35451509 86.67725754 -247.35451509 86.67725754 -252.83935547 88.93603516 C-263.6839669 93.40967219 -273.30125005 99.45368182 -283 106 C-283.83354004 106.56025879 -284.66708008 107.12051758 -285.52587891 107.69775391 C-296.50953824 115.12300135 -307.05565059 122.94359859 -317.19433594 131.48681641 C-318.86771682 132.88914398 -320.55873464 134.26574226 -322.2578125 135.63671875 C-339.0513086 149.37662078 -355.33929098 165.35696767 -368 183 C-368.89612924 184.1720401 -369.79601561 185.34121502 -370.69921875 186.5078125 C-377.56321873 195.46361827 -383.29750883 204.90911387 -388.76269531 214.77197266 C-389.86518527 216.75723772 -390.98764863 218.72928135 -392.1171875 220.69921875 C-407.58957433 248.44388027 -417.51432786 280.01347815 -424 311 C-424.19819336 311.93215332 -424.39638672 312.86430664 -424.60058594 313.82470703 C-440.51075446 390.00838917 -423.5753679 475.55309529 -381.09375 540.62109375 C-371.29660579 555.4242349 -361.2086193 570.07322662 -349 583 C-347.91174193 584.26661866 -346.82831815 585.53740846 -345.75 586.8125 C-338.17922668 595.49506521 -329.80983044 603.58803933 -321 611 C-320.09507812 611.7940625 -319.19015625 612.588125 -318.2578125 613.40625 C-282.12607442 644.94413699 -238.19490418 665.18798497 -192 677 C-191.0910498 677.23702637 -190.18209961 677.47405273 -189.24560547 677.71826172 C-167.37357642 683.35214896 -144.58868107 686.53723573 -122 687 C-120.71657715 687.03867188 -120.71657715 687.03867188 -119.40722656 687.078125 C-61.16152363 688.71827151 -1.94486741 671.79439167 48 642 C48.77150391 641.54012695 49.54300781 641.08025391 50.33789062 640.60644531 C66.04978317 631.14985799 80.5629753 620.49320411 94 608 C95.28819861 606.89178922 96.57978858 605.78750644 97.875 604.6875 C105.52739566 598.01299668 112.74192853 590.70031255 119.3125 582.9609375 C120.51297938 581.565936 121.74598788 580.19864583 123 578.8515625 C177.09871692 520.69544181 202.78983033 436.24117895 200 358 C199.41155508 348.61798137 198.3034845 339.30699169 197 330 C196.86078125 329.00452148 196.7215625 328.00904297 196.578125 326.98339844 C189.86359102 280.86760601 173.24141287 234.05412829 146 196 C145.23187988 194.91162842 145.23187988 194.91162842 144.44824219 193.80126953 C132.56866338 176.97010158 119.67884775 161.49112627 105.09863281 146.91333008 C103.6279359 145.44044028 102.16546466 143.95969735 100.703125 142.47851562 C92.37265778 134.09802342 83.42240453 126.5865054 73.875 119.625 C72.94312866 118.94473755 72.94312866 118.94473755 71.99243164 118.25073242 C51.58621064 103.51839918 29.73417262 91.54136148 6.67480469 81.52539062 C1.09591332 79.09591332 1.09591332 79.09591332 0 78 C-0.09498646 75.56603981 -0.12558417 73.16057048 -0.11352539 70.72631836 C-0.11367142 69.96539383 -0.11381744 69.2044693 -0.1139679 68.42048645 C-0.11326862 65.89357702 -0.10547555 63.36674038 -0.09765625 60.83984375 C-0.09579212 59.0924941 -0.0943682 57.34514393 -0.09336853 55.59779358 C-0.08954293 50.98968066 -0.07971229 46.38159905 -0.06866455 41.77349854 C-0.05845134 37.07491479 -0.0538711 32.37632601 -0.04882812 27.67773438 C-0.03809005 18.45180913 -0.02101313 9.22590716 0 0 Z " fill="#000000" transform="translate(615,167)"/>
<path d="M0 0 C1.11433914 0.00303635 1.11433914 0.00303635 2.25119019 0.00613403 C3.41942825 0.00350555 3.41942825 0.00350555 4.61126709 0.00082397 C7.19829505 -0.00359493 9.78525522 -0.00065643 12.37228394 0.00271606 C14.16207899 0.00204304 15.95187396 0.00107302 17.7416687 -0.00018311 C21.49778105 -0.00166013 25.25386966 0.00049462 29.00997925 0.00515747 C33.83578887 0.01085476 38.66154288 0.00757578 43.48735046 0.00158501 C47.18466616 -0.00202048 50.88196858 -0.00088208 54.57928467 0.0017128 C56.35917162 0.0023821 58.13905975 0.00155353 59.91894531 -0.00076675 C62.40212216 -0.00329309 64.88520768 0.00054702 67.36837769 0.00613403 C68.11127045 0.0041098 68.85416321 0.00208557 69.61956787 0 C74.69552132 0.02126595 74.69552132 0.02126595 75.80978394 1.13552856 C75.90883043 4.01631918 75.94153053 6.87316217 75.93283176 9.754426 C75.93398561 10.67405513 75.93513945 11.59368426 75.93632826 12.54118094 C75.93900293 15.66351382 75.93446582 18.78579649 75.93003845 21.90812683 C75.93047398 24.15288141 75.93134855 26.39763594 75.93262762 28.64239019 C75.93487619 34.84259342 75.93084638 41.04277955 75.92584956 47.2429806 C75.92199127 53.23276999 75.92280874 59.22255815 75.9235314 65.21234833 C75.92484743 77.47084808 75.92149581 89.72934246 75.91551399 101.98784065 C75.90960359 114.13103321 75.90574939 126.27422354 75.90466118 138.41741753 C75.90459244 139.17152143 75.9045237 139.92562534 75.90445288 140.70258089 C75.90411456 144.53205636 75.90381317 148.36153183 75.903526 152.19100731 C75.90142376 179.3382874 75.8946813 206.48556457 75.88522339 233.63284302 C75.87604387 260.01142359 75.86895785 286.39000336 75.86471558 312.76858521 C75.86458405 313.58122009 75.86445252 314.39385498 75.86431701 315.23111517 C75.86299853 323.39168511 75.86172271 331.55225505 75.86047815 339.71282499 C75.85794172 356.33789269 75.85512046 372.96296033 75.85212708 389.58802795 C75.85192114 390.73470098 75.85192114 390.73470098 75.85171105 391.90453912 C75.84250529 442.9815369 75.82643171 494.05853273 75.80978394 545.13552856 C48.74978394 545.13552856 21.68978394 545.13552856 -6.19021606 545.13552856 C-6.20711552 493.28636231 -6.22324743 441.43719618 -6.2325592 389.58802795 C-6.23269726 388.82126879 -6.23283532 388.05450962 -6.23297756 387.26451533 C-6.23597011 370.60282321 -6.23874034 353.94113105 -6.24128139 337.27943886 C-6.24252879 329.1091543 -6.24382533 320.93886975 -6.24514771 312.76858521 C-6.24527846 311.95552154 -6.24540922 311.14245787 -6.24554394 310.30475591 C-6.24980918 283.92676022 -6.25732338 257.54876665 -6.26651329 231.17077225 C-6.27593598 204.07551662 -6.28209921 176.98026218 -6.28413105 149.88500494 C-6.28441923 146.0624758 -6.28474487 142.23994666 -6.28509331 138.41741753 C-6.28516073 137.66505109 -6.28522815 136.91268465 -6.28529762 136.13751923 C-6.28648169 124.00153298 -6.29112607 111.86555038 -6.2970481 99.72956563 C-6.30292111 87.54393084 -6.30518763 75.35829968 -6.30371744 63.17266352 C-6.30302141 56.56409162 -6.30409561 49.95552837 -6.30942154 43.34695816 C-6.31425339 37.30773658 -6.31455614 31.26853306 -6.31111496 25.22931068 C-6.31068905 23.03415226 -6.31198658 20.83899276 -6.31509925 18.64383651 C-6.31905961 15.68067695 -6.31698172 12.71758432 -6.31326389 9.754426 C-6.31589091 8.8842891 -6.31851792 8.01415219 -6.32122454 7.1176475 C-6.30084656 0.02639769 -6.30084656 0.02639769 0 0 Z " fill="#000000" transform="translate(465.1902160644531,71.86447143554688)"/>
</svg>
