<?xml version="1.0" encoding="UTF-8"?>
<svg version="1.1" xmlns="http://www.w3.org/2000/svg" width="512" height="512">
<path d="M0 0 C0.80036682 -0.00705963 1.60073364 -0.01411926 2.425354 -0.02139282 C35.43304423 -0.24644344 35.43304423 -0.24644344 50.390625 3.203125 C51.26396484 3.39116699 52.13730469 3.57920898 53.03710938 3.77294922 C103.72670226 14.85799067 146.42594999 45.9270679 174.66113281 89.14794922 C188.21533049 110.39746698 197.11401507 134.61889557 202.390625 159.203125 C196.7522869 160.94153345 191.11063339 162.66854521 185.46557617 164.38500977 C183.54502063 164.97074105 181.6254147 165.55959538 179.70678711 166.15161133 C176.95148504 167.00120434 174.19298185 167.83956921 171.43359375 168.67578125 C170.14439278 169.07725121 170.14439278 169.07725121 168.82914734 169.48683167 C168.02854385 169.72715622 167.22794037 169.96748077 166.40307617 170.21508789 C165.6991423 170.43048721 164.99520844 170.64588654 164.26994324 170.86781311 C162.390625 171.203125 162.390625 171.203125 159.390625 170.203125 C158.35083008 167.62133789 158.35083008 167.62133789 157.41015625 164.17578125 C157.0551001 162.91717285 156.70004395 161.65856445 156.33422852 160.36181641 C156.15014435 159.69289368 155.96606018 159.02397095 155.77639771 158.33477783 C149.19650452 134.58551417 139.82008641 113.84158962 123.390625 95.203125 C122.57207031 94.24019531 121.75351562 93.27726562 120.91015625 92.28515625 C110.57814914 80.35541608 98.16519751 70.86995241 84.390625 63.203125 C83.80265137 62.8736084 83.21467773 62.5440918 82.60888672 62.20458984 C66.66488001 53.39176456 49.40728003 47.78282933 31.390625 45.203125 C30.56433594 45.07292969 29.73804688 44.94273438 28.88671875 44.80859375 C-8.45664235 39.93772056 -47.69086988 51.06588012 -77.6640625 73.48828125 C-80.37399709 75.66467348 -83.0009035 77.90640728 -85.609375 80.203125 C-86.53363281 80.99460937 -87.45789063 81.78609375 -88.41015625 82.6015625 C-96.1673441 89.40385447 -102.43481667 96.97038056 -108.609375 105.203125 C-90.129375 105.533125 -71.649375 105.863125 -52.609375 106.203125 C-52.609375 120.723125 -52.609375 135.243125 -52.609375 150.203125 C-94.849375 150.203125 -137.089375 150.203125 -180.609375 150.203125 C-180.609375 107.633125 -180.609375 65.063125 -180.609375 21.203125 C-166.419375 21.203125 -152.229375 21.203125 -137.609375 21.203125 C-137.279375 37.043125 -136.949375 52.883125 -136.609375 69.203125 C-132.979375 65.243125 -129.349375 61.283125 -125.609375 57.203125 C-94.11521799 23.78859256 -46.37997061 0.27276461 0 0 Z " fill="#000000" transform="translate(244.609375,63.796875)"/>
<path d="M0 0 C1.03979492 2.58178711 1.03979492 2.58178711 1.98046875 6.02734375 C2.51305298 7.91525635 2.51305298 7.91525635 3.05639648 9.84130859 C3.24048065 10.51023132 3.42456482 11.17915405 3.61422729 11.86834717 C10.19412048 35.61761083 19.57053859 56.36153538 36 75 C36.81855469 75.96292969 37.63710937 76.92585938 38.48046875 77.91796875 C62.29469264 105.41480458 97.26395966 121.17325405 132.9375 125.75 C134.62302501 125.86664533 136.31138673 125.9435561 138 126 C138.66483398 126.02578125 139.32966797 126.0515625 140.01464844 126.078125 C173.68411194 127.22676341 207.85846876 118.61220061 235 98 C235.84046875 97.36707031 236.6809375 96.73414063 237.546875 96.08203125 C249.31533378 86.92675509 259.06362822 76.91516237 268 65 C249.52 64.67 231.04 64.34 212 64 C212 49.48 212 34.96 212 20 C254.24 20 296.48 20 340 20 C340 62.57 340 105.14 340 149 C325.81 149 311.62 149 297 149 C296.67 133.16 296.34 117.32 296 101 C290.555 106.94 290.555 106.94 285 113 C254.5931563 145.26091953 209.48091697 167.85528792 164.87498474 170.10728455 C162.753467 170.16253673 160.63391164 170.19017631 158.51171875 170.203125 C157.73500824 170.21018463 156.95829773 170.21724426 156.15805054 170.22451782 C124.06367686 170.45005776 124.06367686 170.45005776 109 167 C108.12520996 166.81195801 107.25041992 166.62391602 106.34912109 166.43017578 C55.66169699 155.34367985 12.96360245 124.27441528 -15.27050781 81.05517578 C-28.82470549 59.80565802 -37.72339007 35.58422943 -43 11 C-37.3616619 9.26159155 -31.72000839 7.53457979 -26.07495117 5.81811523 C-24.15439563 5.23238395 -22.2347897 4.64352962 -20.31616211 4.05151367 C-17.56086004 3.20192066 -14.80235685 2.36355579 -12.04296875 1.52734375 C-11.18350143 1.25969711 -10.32403412 0.99205048 -9.43852234 0.71629333 C-8.23761711 0.3558065 -8.23761711 0.3558065 -7.01245117 -0.01196289 C-6.3085173 -0.22736221 -5.60458344 -0.44276154 -4.87931824 -0.66468811 C-3 -1 -3 -1 0 0 Z " fill="#000000" transform="translate(108,278)"/>
</svg>
