<svg xmlns="http://www.w3.org/2000/svg" width="24" height="24" viewBox="0 0 256 256"><path fill="#fff" d="M104 40H56a16 16 0 0 0-16 16v48a16 16 0 0 0 16 16h48a16 16 0 0 0 16-16V56a16 16 0 0 0-16-16Zm0 64H56V56h48v48Zm96-64h-48a16 16 0 0 0-16 16v48a16 16 0 0 0 16 16h48a16 16 0 0 0 16-16V56a16 16 0 0 0-16-16Zm0 64h-48V56h48v48Zm-96 32H56a16 16 0 0 0-16 16v48a16 16 0 0 0 16 16h48a16 16 0 0 0 16-16v-48a16 16 0 0 0-16-16Zm0 64H56v-48h48v48Zm96-64h-48a16 16 0 0 0-16 16v48a16 16 0 0 0 16 16h48a16 16 0 0 0 16-16v-48a16 16 0 0 0-16-16Zm0 64h-48v-48h48v48Z"/></svg>